<svg width="1024" height="1024" viewBox="0 0 1024 1024" fill="none" xmlns="http://www.w3.org/2000/svg">
<g clip-path="url(#clip0_102_166)">
<path d="M185.995 892.28H452.96C511.685 892.28 550.956 854.832 550.956 798.66V223.62C550.956 167.448 511.685 130 452.96 130H185.995C127.27 130 88 167.448 88 223.62V798.66C88 854.832 127.27 892.28 185.995 892.28ZM193.561 834.308C162.937 834.308 146.004 818.105 146.004 789.297V232.982C146.004 204.176 162.937 187.972 193.561 187.972H445.755C476.017 187.972 492.951 204.176 492.951 232.982V789.297C492.951 818.105 476.017 834.308 445.755 834.308H193.561ZM243.28 808.022H396.396C406.124 808.022 412.97 801.181 412.97 791.098C412.97 781.016 406.124 774.535 396.396 774.535H243.28C233.552 774.535 226.346 781.016 226.346 791.098C226.346 801.181 233.552 808.022 243.28 808.022ZM276.064 264.308H363.251C377.302 264.308 388.47 253.146 388.47 238.743C388.47 224.7 377.302 213.537 363.251 213.537H276.064C261.654 213.537 250.484 224.7 250.484 238.743C250.484 253.146 261.654 264.308 276.064 264.308Z" fill="url(#paint0_linear_102_166)"/>
<g clip-path="url(#clip1_102_166)">
<path d="M405.905 511.648C409.322 515.066 413.341 515.368 416.758 511.95L441.377 487.417C444.492 484.2 444.291 479.977 440.874 476.659L434.845 470.728C431.83 467.51 429.721 467.108 426.404 467.41L416.758 468.415L410.528 462.383L413.341 450.82C414.849 445.089 412.638 439.158 406.609 433.125L386.612 413.318C366.314 393.411 320.493 394.618 302.104 415.128C298.386 419.25 298.989 423.473 301.4 426.188C303.209 428.299 306.525 429.506 309.238 428.199C323.809 421.362 339.585 419.049 352.849 424.981L344.609 446.095C341.896 453.133 343.303 458.059 347.825 462.584L366.113 480.882C369.429 484.1 372.946 485.105 378.272 483.999L391.435 481.385L397.565 487.619L396.661 497.07C396.259 500.789 396.661 502.8 399.876 505.917L405.905 511.648ZM204.834 611.586L215.284 622.143C223.725 630.589 234.176 629.885 242.717 620.132L357.572 488.926C356.969 488.423 356.466 487.92 355.964 487.417L339.886 471.331C339.384 470.728 338.781 470.124 338.178 469.622L207.044 584.339C197.096 592.886 196.393 603.241 204.834 611.586Z" fill="url(#paint1_linear_102_166)"/>
</g>
</g>
<defs>
<linearGradient id="paint0_linear_102_166" x1="319.478" y1="130" x2="319.478" y2="892.28" gradientUnits="userSpaceOnUse">
<stop stop-color="#5FC7F7"/>
<stop offset="1" stop-color="#3A72EA"/>
</linearGradient>
<linearGradient id="paint1_linear_102_166" x1="321.291" y1="399.046" x2="321.291" y2="628" gradientUnits="userSpaceOnUse">
<stop stop-color="#5FC5F7"/>
<stop offset="1" stop-color="#3B7CEA"/>
</linearGradient>
<clipPath id="clip0_102_166">
<rect width="468" height="763" fill="white" transform="translate(88 130)"/>
</clipPath>
<clipPath id="clip1_102_166">
<rect width="246" height="232" fill="white" transform="translate(199 396)"/>
</clipPath>
</defs>
</svg>
